<?xml version="1.0" encoding="UTF-8" standalone="no"?>
<!-- Created with Inkscape (http://www.inkscape.org/) -->

<svg
   xmlns:dc="http://purl.org/dc/elements/1.1/"
   xmlns:cc="http://creativecommons.org/ns#"
   xmlns:rdf="http://www.w3.org/1999/02/22-rdf-syntax-ns#"
   xmlns:svg="http://www.w3.org/2000/svg"
   xmlns="http://www.w3.org/2000/svg"
   xmlns:sodipodi="http://sodipodi.sourceforge.net/DTD/sodipodi-0.dtd"
   xmlns:inkscape="http://www.inkscape.org/namespaces/inkscape"
   width="406.11749mm"
   height="170.12587mm"
   viewBox="0 0 1438.999 602.8082"
   id="svg5418"
   version="1.1"
   inkscape:version="0.91 r13725"
   sodipodi:docname="DoningtonParkGP.svg">
  <defs
     id="defs5420" />
  <sodipodi:namedview
     id="base"
     pagecolor="#ffffff"
     bordercolor="#666666"
     borderopacity="1.0"
     inkscape:pageopacity="0.0"
     inkscape:pageshadow="2"
     inkscape:zoom="0.35"
     inkscape:cx="641.64235"
     inkscape:cy="175.6898"
     inkscape:document-units="px"
     inkscape:current-layer="layer1"
     showgrid="false"
     fit-margin-top="0"
     fit-margin-left="0"
     fit-margin-right="0"
     fit-margin-bottom="0"
     inkscape:window-width="1600"
     inkscape:window-height="837"
     inkscape:window-x="-8"
     inkscape:window-y="-8"
     inkscape:window-maximized="1" />
  <metadata
     id="metadata5423">
    <rdf:RDF>
      <cc:Work
         rdf:about="">
        <dc:format>image/svg+xml</dc:format>
        <dc:type
           rdf:resource="http://purl.org/dc/dcmitype/StillImage" />
        <dc:title></dc:title>
      </cc:Work>
    </rdf:RDF>
  </metadata>
  <g
     inkscape:label="Layer 1"
     inkscape:groupmode="layer"
     id="layer1"
     transform="translate(753.7852,-105.24383)">
    <path
       inkscape:connector-curvature="0"
       id="path5407"
       d="m -263.38656,168.09898 c 6.2145,-4.38876 12.5021,-8.68296 18.9521,-12.71779 7.5012,-4.69251 15.1476,-9.16353 22.9426,-13.34983 6.9904,-3.75401 14.1774,-7.13159 21.3424,-10.53952 6.7876,-3.22833 13.606,-6.39681 20.5029,-9.38379 5.3962,-2.337 10.8214,-4.61675 16.3291,-6.67726 4.6404,-1.73601 9.1976,-3.89731 14.0718,-4.7856 2.6707,-0.48679 5.4324,-0.46527 8.1398,-0.26644 3.5578,0.26175 7.1453,0.7849 10.5301,1.91179 5.4966,1.82989 10.6492,4.67301 15.5485,7.76483 8.7639,5.53098 16.268603,12.84356 24.507403,19.13013 15.1438,11.55559 30.3509,23.03481 45.8098,34.1656 18.3599,13.21972 37.3740999,25.51415 55.7371,38.7297 8.0206,5.77225 15.2559,12.69981 23.7717,17.71255 5.5533,3.2689 11.495,5.95384 17.6229,7.94768 4.9654,1.61568 10.2081,2.20878 15.3359,3.19609 10.1426,1.953 20.2526,4.21445 30.514,5.39448 11.973797,1.37698 24.053197,1.82382 36.105197,1.95209 14.9299,0.15895 29.8732,-0.43513 44.7685,-1.46549 19.5092,-1.34948 38.9117,-3.95949 58.3416,-6.17217 14.0602,-1.60118 28.3014,-2.18799 42.1411,-5.14032 8.1499,-1.73864 16.2583,-4.01907 23.8909,-7.36358 8.1043,-3.55108 15.6184,-8.38619 22.9429,-13.34985 10.0443,-6.80678 19.1647,-14.88709 28.6626,-22.43773 11.0991,-8.82368 21.2498,-18.93111 33.0981,-26.71988 8.7642,-5.76134 18.1825,-10.57716 27.8525,-14.63882 7.0688,-2.96916 14.3182,-5.87656 21.8956,-7.04753 8.2606,-1.27658 16.8891,-1.56705 25.0759,0.11933 6.2226,1.28169 12.4112,3.7047 17.5439,7.44877 11.3611,8.28755 18.6477,21.06397 27.5595,31.94243 15.4718,18.88604 29.6744,38.78258 44.9545,57.82417 33.91901,42.26946 68.02961,84.42234 103.69871,125.22579 4.3947,5.02724 9.3688,9.5442 13.5824,14.72403 3.3259,4.08855 7.4867,7.87637 9.1964,12.86187 0.9346,2.72604 0.494,5.76115 0.3457,8.63862 -0.2986,5.63652 -1.1944,11.25294 -2.4601,16.75355 -1.6886,7.33745 -4.2065,14.4723 -6.8168,21.53455 -2.2027,5.95914 -4.6451,11.8426 -7.4489,17.5437 -2.2742,4.62459 -4.5411,9.31298 -7.582,13.47381 -2.9013,3.9699 -6.46,7.43819 -10.0514,10.7967 -7.1076,6.64675 -14.4604,13.16334 -22.6518,18.41745 -8.6059,5.5202 -17.8516,10.21195 -27.5115,13.5621 -12.1056,4.19838 -24.9066,6.23375 -37.59711,8.0003 -27.7934,3.86885 -55.9935,3.81057 -83.9955,5.633 -71.5499,4.65664 -143.1248,8.91726 -214.6764,13.5465 -68.4934,4.43139 -136.9959,8.74642 -205.459497,13.62084 -20.724,1.47554 -41.5141,2.31446 -62.1497001,4.72983 -3.5115999,0.41101 -7.3872999,-0.0612 -10.4759999,1.65924 -2.5047,1.39513 -4.4244,3.90689 -5.616,6.51459 -2.3459,5.13376 -0.8825,11.33416 -2.4602,16.75355 -1.2923,4.43868 -2.8177,9.01736 -5.6656,12.65888 -3.2036,4.09617 -7.7942,6.993 -12.2842,9.61622 -8.0739,4.71717 -16.9119,8.21066 -25.9109,10.75174 -15.8785,4.48351 -32.584503,5.21149 -48.888303,7.74312 -27.4506,4.26251 -54.9973,7.92033 -82.3904,12.53801 -32.052,5.40299 -64.1888,10.53919 -95.8847,17.74349 -29.2253,6.64274 -57.7974,15.89465 -86.7966,23.46331 -25.5148,6.6592 -51.0336,13.3281 -76.7156,19.30977 -6.0758,1.4151 -12.0711,4.26831 -18.2998,3.92112 -4.7366,-0.26401 -9.8922,-1.42762 -13.4985,-4.50986 -3.6424,-3.11314 -6.0938,-7.99581 -6.6229,-12.75808 -0.5077,-4.57029 1.3552,-9.27938 3.5121,-13.34058 2.4669,-4.64522 6.0083,-8.9674 10.3923,-11.87342 6.967,-4.61826 15.8468,-5.32692 23.8118,-7.8624 29.8117,-9.48992 59.8242,-18.33733 89.7358,-27.50842 32.1875,-9.86899 64.1254,-20.5931 96.5615,-29.61226 20.354,-5.6596 40.7689,-11.23674 61.488,-15.36384 18.989,-3.78246 38.3795,-5.22671 57.4478,-8.58747 7.6341,-1.34548 16.1666,-0.60347 22.7892,-4.6322 4.0735,-2.47797 7.0421,-6.77906 8.975,-11.13757 2.6547,-5.98644 3.9841,-12.92228 3.0627,-19.40585 -0.9368,-6.59407 -3.8028,-13.35538 -8.4898,-18.0875 -5.6196,-5.67399 -13.8766,-8.3149 -21.5887,-10.38771 -7.0197,-1.88665 -14.4828,-1.29834 -21.742,-1.67013 -51.8088,-2.65335 -103.7232,-2.51381 -155.5788,-3.99559 -74.5267,-2.12964 -149.0483,-4.45883 -223.561,-7.03529 -37.3871,-1.29272 -74.8877,-0.89602 -112.1485,-4.22642 -15.4356,-1.37967 -31.3335,-1.60758 -46.0328,-6.51617 -9.1039,-3.04004 -18.7005,-6.85509 -25.2141,-13.9045 -6.0426,-6.53968 -9.1001,-15.63972 -11.0136,-24.33559 -1.4633,-6.65061 -1.6799,-13.78874 -0.1673,-20.42839 2.4691,-10.83915 9.5916,-20.06194 14.69,-29.94077 7.4898,-14.51293 15.1367,-28.9569 23.3487,-43.07374 10.0824,-17.33173 19.5231,-35.20696 31.8,-51.06009 8.8241,-11.3948 18.8922,-21.90965 29.8135,-31.31336 12.7814,-11.00499 26.4916,-21.21284 41.4209,-29.06079 17.3309,-9.11052 36.205,-15.17719 55.0526,-20.48104 18.3247,-5.15667 37.0759,-9.44276 56.0548,-10.92368 18.3024,-1.42815 36.7404,0.52327 55.0371,2.02177 12.5847,1.0307 24.9925,3.75375 37.5771,4.78722 10.4313,0.85666 20.9429,1.97375 31.3782,1.16661 9.7418,-0.75348 19.4209,-2.76083 28.7759,-5.58039 9.618,-2.89882 18.8002,-7.16053 27.8277,-11.56667 10.8197,-5.28095 21.3541,-11.20265 31.4482,-17.76522 7.0079,-4.55616 13.3045,-10.1283 20.1323,-14.95019 z"
       style="fill:none;fill-rule:evenodd;stroke:#000000;stroke-width:10;stroke-linecap:butt;stroke-linejoin:miter;stroke-miterlimit:4;stroke-dasharray:none;stroke-opacity:1"
       sodipodi:nodetypes="sssssssssssssssssssssssssssssssssssssssssssssssssssssssssssssssssssssssssssssssssssssssssssssss" />
  </g>
</svg>
